<svg width="115" height="40" viewBox="0 0 115 40" fill="none" xmlns="http://www.w3.org/2000/svg">
<g clip-path="url(#clip0_2114_12541)">
<mask id="mask0_2114_12541" style="mask-type:luminance" maskUnits="userSpaceOnUse" x="0" y="0" width="115" height="40">
<path d="M115 0H0V40H115V0Z" fill="white"/>
</mask>
<g mask="url(#mask0_2114_12541)">
<path d="M7.76158 29.3671C6.63514 29.3671 5.72724 29.0212 5.0379 28.3292C4.34857 27.6203 4.00391 26.7174 4.00391 25.6203C4.00391 25.0802 4.10478 24.5739 4.30654 24.1013C4.50829 23.6288 4.84455 23.1815 5.31531 22.7596L13.3098 15.6203C13.3435 15.5865 13.3687 15.5444 13.3855 15.4937C13.4191 15.4431 13.4359 15.384 13.4359 15.3165C13.4359 15.2321 13.4107 15.1562 13.3603 15.0887C13.3098 15.0043 13.251 14.9452 13.1837 14.9115C13.1165 14.8608 13.0408 14.8355 12.9568 14.8355H4.43263V11.6456H13.4864C14.2429 11.6456 14.8986 11.806 15.4535 12.1266C16.0251 12.4473 16.4622 12.8861 16.7649 13.4431C17.0843 14.0001 17.244 14.6498 17.244 15.3925C17.244 15.9157 17.1432 16.422 16.9414 16.9115C16.7564 17.384 16.4454 17.8144 16.0083 18.2026L7.9129 25.3925C7.8961 25.4093 7.87088 25.4346 7.83724 25.4684C7.82044 25.5022 7.8036 25.5359 7.7868 25.5697C7.7868 25.6035 7.7868 25.6456 7.7868 25.6963C7.7868 25.7807 7.8036 25.865 7.83724 25.9494C7.88768 26.0169 7.94654 26.076 8.01377 26.1266C8.09786 26.1604 8.18189 26.1773 8.26597 26.1773H17.3701V29.3671H7.76158ZM27.2643 29.3671C25.8016 29.3671 24.5238 29.0887 23.4309 28.5317C22.3549 27.9579 21.5143 27.1815 20.909 26.2026C20.3205 25.2237 20.0263 24.1266 20.0263 22.9115C20.0263 21.5444 20.3037 20.3545 20.8586 19.3418C21.4134 18.3292 22.17 17.5444 23.1283 16.9874C24.0866 16.4304 25.1711 16.152 26.3816 16.152C27.8275 16.152 28.996 16.4558 29.8871 17.0634C30.795 17.6709 31.4591 18.4895 31.8794 19.519C32.2997 20.5317 32.5099 21.6625 32.5099 22.9115C32.5099 23.0802 32.5015 23.2827 32.4847 23.519C32.4679 23.7384 32.4427 23.9073 32.409 24.0254H23.7084C23.8429 24.5486 24.0698 24.9874 24.3893 25.3418C24.7255 25.6963 25.1374 25.9663 25.625 26.152C26.1294 26.3207 26.6927 26.4051 27.3147 26.4051H30.8959V29.3671H27.2643ZM23.6831 21.6963H29.0548C29.0212 21.3756 28.9624 21.0802 28.8783 20.8102C28.7942 20.5232 28.6766 20.2701 28.5252 20.0507C28.3739 19.8313 28.1974 19.6456 27.9956 19.4937C27.7939 19.3418 27.5585 19.2237 27.2895 19.1393C27.0205 19.0549 26.7262 19.0127 26.4068 19.0127C25.9865 19.0127 25.6082 19.0887 25.2719 19.2406C24.9525 19.3925 24.6835 19.595 24.4649 19.8482C24.2464 20.1013 24.0698 20.3883 23.9353 20.7089C23.8177 21.0296 23.7336 21.3587 23.6831 21.6963ZM35.8448 29.3671V21.9494C35.8448 20.8861 36.0886 19.9157 36.5762 19.038C37.0806 18.1604 37.8035 17.46 38.7451 16.9368C39.6865 16.4136 40.813 16.152 42.1244 16.152C43.4526 16.152 44.5791 16.4136 45.5038 16.9368C46.4453 17.46 47.1599 18.1604 47.6475 19.038C48.1519 19.9157 48.404 20.8861 48.404 21.9494V29.3671H44.949V21.9494C44.949 21.4262 44.8229 20.9536 44.5707 20.5317C44.3185 20.0929 43.9738 19.7469 43.5367 19.4937C43.1164 19.2406 42.6456 19.114 42.1244 19.114C41.6032 19.114 41.124 19.2406 40.6869 19.4937C40.2666 19.7469 39.9304 20.0929 39.6782 20.5317C39.426 20.9536 39.2999 21.4262 39.2999 21.9494V29.3671H35.8448Z" fill="white"/>
<path d="M54.2966 29.6709C53.6575 29.6709 53.1027 29.4431 52.6321 28.9874C52.1781 28.5148 51.9512 27.9579 51.9512 27.3165C51.9512 26.6751 52.1781 26.1266 52.6321 25.6709C53.1027 25.1984 53.6575 24.9621 54.2966 24.9621C54.9351 24.9621 55.4819 25.1984 55.9358 25.6709C56.4064 26.1266 56.642 26.6751 56.642 27.3165C56.642 27.7384 56.5325 28.1351 56.3141 28.5064C56.1124 28.8608 55.8349 29.1477 55.4819 29.3671C55.1288 29.5697 54.7334 29.6709 54.2966 29.6709ZM65.2503 29.3671C64.2078 29.3671 63.2913 29.1308 62.5014 28.6583C61.711 28.1688 61.0972 27.5275 60.6604 26.7342C60.2231 25.9241 60.0047 25.038 60.0047 24.076V11.6456H63.6111V24.5064C63.6111 24.9621 63.7704 25.3587 64.0902 25.6962C64.4095 26.0169 64.7964 26.1773 65.2503 26.1773H69.9159V29.3671H65.2503ZM72.9528 29.3671V16.4557H76.4331V29.3671H72.9528ZM74.6929 14.9114C74.1043 14.9114 73.5913 14.7004 73.1545 14.2785C72.7339 13.8397 72.5241 13.325 72.5241 12.7342C72.5241 12.1435 72.7339 11.6372 73.1545 11.2152C73.5913 10.7764 74.1043 10.557 74.6929 10.557C75.281 10.557 75.7854 10.7764 76.2061 11.2152C76.6429 11.6372 76.8618 12.1435 76.8618 12.7342C76.8618 13.325 76.6429 13.8397 76.2061 14.2785C75.7854 14.7004 75.281 14.9114 74.6929 14.9114ZM87.2345 16.1519C88.3275 16.1519 89.2944 16.3292 90.1347 16.6836C90.9755 17.0212 91.6817 17.5106 92.2531 18.1519C92.8251 18.7764 93.2619 19.519 93.5645 20.3798C93.8672 21.2237 94.0185 22.1519 94.0185 23.1646C94.0185 24.4304 93.7582 25.5528 93.2367 26.5317C92.7323 27.5106 92.0181 28.2785 91.093 28.8355C90.1685 29.3924 89.0755 29.6709 87.8145 29.6709C87.2768 29.6709 86.7553 29.595 86.2509 29.4431C85.7637 29.2912 85.3178 29.0718 84.9143 28.7849C84.5279 28.4979 84.2001 28.1604 83.9308 27.7722H83.9055V34.9368H80.4505V23.1646C80.4505 21.73 80.7279 20.4895 81.2827 19.4431C81.8376 18.3967 82.6193 17.5865 83.6281 17.0127C84.654 16.4389 85.856 16.1519 87.2345 16.1519ZM87.2345 19.114C86.5621 19.114 85.9735 19.2827 85.4691 19.6203C84.9819 19.9579 84.6036 20.4136 84.3343 20.9874C84.0821 21.5612 83.956 22.2026 83.956 22.9114C83.956 23.6203 84.0821 24.2617 84.3343 24.8355C84.6036 25.4093 84.9819 25.865 85.4691 26.2026C85.9735 26.5401 86.5621 26.7089 87.2345 26.7089C87.924 26.7089 88.5126 26.5401 88.9998 26.2026C89.4876 25.865 89.8573 25.4093 90.1095 24.8355C90.3788 24.2617 90.513 23.6203 90.513 22.9114C90.513 22.2026 90.3788 21.5612 90.1095 20.9874C89.8573 20.4136 89.4876 19.9579 88.9998 19.6203C88.5126 19.2827 87.924 19.114 87.2345 19.114ZM102.506 29.6709C101.329 29.6709 100.303 29.3671 99.429 28.7595C98.5544 28.1519 97.8735 27.3418 97.3863 26.3292C96.9152 25.2996 96.6801 24.1688 96.6801 22.9368C96.6801 21.6709 96.949 20.5232 97.4871 19.4937C98.042 18.4642 98.8318 17.6541 99.8577 17.0633C100.883 16.4557 102.11 16.1519 103.54 16.1519C104.985 16.1519 106.204 16.4557 107.197 17.0633C108.188 17.6709 108.945 18.4895 109.466 19.519C109.987 20.5486 110.248 21.6878 110.248 22.9368V29.3671H106.793V27.2152H106.743C106.49 27.6709 106.171 28.0844 105.784 28.4557C105.414 28.827 104.96 29.1224 104.422 29.3418C103.884 29.5612 103.245 29.6709 102.506 29.6709ZM103.489 26.7089C104.162 26.7089 104.742 26.5401 105.229 26.2026C105.717 25.865 106.087 25.4093 106.339 24.8355C106.608 24.2448 106.743 23.595 106.743 22.8861C106.743 22.1773 106.608 21.5443 106.339 20.9874C106.087 20.4136 105.717 19.9579 105.229 19.6203C104.742 19.2827 104.162 19.114 103.489 19.114C102.8 19.114 102.203 19.2827 101.699 19.6203C101.211 19.9579 100.833 20.4136 100.564 20.9874C100.312 21.5443 100.186 22.1773 100.186 22.8861C100.186 23.595 100.312 24.2448 100.564 24.8355C100.833 25.4093 101.211 25.865 101.699 26.2026C102.203 26.5401 102.8 26.7089 103.489 26.7089Z" fill="#9BD35A"/>
<path d="M61.2471 33.9196C65.3033 36.8782 70.9812 35.9755 73.9283 31.9033" stroke="#DEDEDE"/>
</g>
</g>
<defs>
<clipPath id="clip0_2114_12541">
<rect width="115" height="40" fill="white"/>
</clipPath>
</defs>
</svg>
