<svg width="411" height="400" viewBox="0 0 411 400" fill="none" xmlns="http://www.w3.org/2000/svg">
<path d="M375.087 399.197C365.302 399.197 356.807 395.713 349.601 388.746C342.65 381.52 339.175 373.004 339.175 363.197C339.175 353.391 342.65 345.004 349.601 338.036C356.807 330.81 365.302 327.197 375.087 327.197C384.865 327.197 393.237 330.81 400.188 338.036C407.393 345.004 411 353.391 411 363.197C411 369.649 409.324 375.714 405.98 381.391C402.891 386.81 398.643 391.198 393.237 394.552C387.831 397.649 381.776 399.197 375.087 399.197Z" fill="#9BD35A"/>
<path d="M84.1349 400C58.9136 400 38.5857 392.191 23.1512 376.571C7.71704 360.571 0 340.191 0 315.429C0 303.238 2.25866 291.809 6.77597 281.143C11.2933 270.477 18.8222 260.381 29.3625 250.857L208.361 89.7143C209.114 88.952 209.679 88 210.055 86.8571C210.808 85.7143 211.184 84.3806 211.184 82.8571C211.184 80.952 210.62 79.2377 209.49 77.7143C208.361 75.8091 207.043 74.4766 205.538 73.7143C204.032 72.5714 202.338 72 200.456 72H9.59929V0H212.314C229.254 0 243.935 3.61944 256.357 10.8572C269.156 18.0949 278.944 28 285.72 40.5714C292.872 53.1428 296.449 67.8091 296.449 84.5714C296.449 96.3806 294.19 107.809 289.673 118.857C285.531 129.523 278.568 139.238 268.78 148L87.5229 310.286C87.1468 310.666 86.5822 311.238 85.8289 312C85.4529 312.762 85.0756 313.523 84.6996 314.286C84.6996 315.048 84.6996 316 84.6996 317.143C84.6996 319.048 85.0757 320.952 85.8289 322.857C86.9582 324.381 88.2762 325.714 89.7816 326.857C91.6641 327.619 93.5456 328 95.4282 328H299.272V400H84.1349Z" fill="#9BD35A"/>
</svg>
